<svg width="18" height="18" viewBox="0 0 18 18" fill="none" xmlns="http://www.w3.org/2000/svg">
<path d="M0.947368 0H16.1053C16.3565 0 16.5975 0.0998117 16.7752 0.277478C16.9528 0.455144 17.0526 0.696111 17.0526 0.947368V5.68421C17.0526 5.93547 16.9528 6.17643 16.7752 6.3541C16.5975 6.53177 16.3565 6.63158 16.1053 6.63158H0.947368C0.696111 6.63158 0.455144 6.53177 0.277478 6.3541C0.0998117 6.17643 0 5.93547 0 5.68421V0.947368C0 0.696111 0.0998117 0.455144 0.277478 0.277478C0.455144 0.0998117 0.696111 0 0.947368 0ZM2.84211 8.52632H8.52632C8.77757 8.52632 9.01854 8.62613 9.19621 8.80379C9.37387 8.98146 9.47368 9.22243 9.47368 9.47368V12.3158H10.4211V18H6.63158V12.3158H7.57895V10.4211H1.89474C1.64348 10.4211 1.40251 10.3212 1.22485 10.1436C1.04718 9.96591 0.947368 9.72494 0.947368 9.47368V7.57895H2.84211V8.52632ZM13.9566 10.1672L15.6316 8.49126L17.3065 10.1662C17.6377 10.4975 17.8632 10.9195 17.9545 11.3789C18.0459 11.8383 17.9989 12.3145 17.8197 12.7472C17.6404 13.18 17.3368 13.5498 16.9473 13.81C16.5579 14.0702 16.1 14.2091 15.6316 14.2091C15.1632 14.2091 14.7053 14.0702 14.3158 13.81C13.9263 13.5498 13.6228 13.18 13.4435 12.7472C13.2642 12.3145 13.2173 11.8383 13.3086 11.3789C13.4 10.9195 13.6255 10.4975 13.9566 10.1662" fill="current"/>
</svg>
