<svg width="17" height="22" viewBox="0 0 17 22" fill="none" xmlns="http://www.w3.org/2000/svg">
<path d="M8.5 5.75C7.33125 5.75 6.33073 6.16125 5.49844 6.98375C4.66615 7.80625 4.25 8.795 4.25 9.95C4.25 11.105 4.66615 12.0937 5.49844 12.9162C6.33073 13.7387 7.33125 14.15 8.5 14.15C9.66875 14.15 10.6693 13.7387 11.5016 12.9162C12.3339 12.0937 12.75 11.105 12.75 9.95C12.75 8.795 12.3339 7.80625 11.5016 6.98375C10.6693 6.16125 9.66875 5.75 8.5 5.75ZM8.5 12.05C7.91563 12.05 7.41554 11.8445 6.99975 11.4337C6.58396 11.0227 6.37571 10.5282 6.375 9.95C6.37429 9.3718 6.58254 8.8776 6.99975 8.4674C7.41696 8.0572 7.91704 7.8514 8.5 7.85C9.08296 7.8486 9.5834 8.0544 10.0013 8.4674C10.4192 8.8804 10.6271 9.3746 10.625 9.95C10.6229 10.5254 10.415 11.0199 10.0013 11.4337C9.58765 11.8473 9.08721 12.0528 8.5 12.05ZM12.75 16.25C13.051 16.25 13.3036 16.1492 13.5076 15.9476C13.7116 15.746 13.8132 15.4968 13.8125 15.2C13.8118 14.9032 13.7098 14.654 13.5065 14.4524C13.3032 14.2508 13.051 14.15 12.75 14.15C12.449 14.15 12.1968 14.2508 11.9935 14.4524C11.7902 14.654 11.6882 14.9032 11.6875 15.2C11.6868 15.4968 11.7888 15.7463 11.9935 15.9486C12.1982 16.1509 12.4504 16.2514 12.75 16.25ZM0 19.4V5.75C0 4.2975 0.518146 3.05955 1.55444 2.03615C2.59073 1.01275 3.84342 0.5007 5.3125 0.5H11.6875C13.1573 0.5 14.4103 1.01205 15.4466 2.03615C16.4829 3.06025 17.0007 4.2982 17 5.75V19.4C17 19.9775 16.7921 20.472 16.3763 20.8836C15.9605 21.2952 15.4601 21.5007 14.875 21.5H2.125C1.54062 21.5 1.04054 21.2945 0.62475 20.8836C0.208958 20.4727 0.000708333 19.9782 0 19.4ZM3.1875 19.4H13.8125C14.1135 19.4 14.3661 19.2992 14.5701 19.0976C14.7741 18.896 14.8757 18.6468 14.875 18.35C14.8743 18.0532 14.7723 17.804 14.569 17.6024C14.3657 17.4008 14.1135 17.3 13.8125 17.3H3.1875C2.88646 17.3 2.63429 17.4008 2.431 17.6024C2.22771 17.804 2.12571 18.0532 2.125 18.35C2.12429 18.6468 2.22629 18.8963 2.431 19.0986C2.63571 19.3009 2.88788 19.4014 3.1875 19.4Z" fill="current"/>
</svg>
