<svg width="17" height="18" viewBox="0 0 17 18" fill="none" xmlns="http://www.w3.org/2000/svg">
<path d="M17 9C17 13.9707 15.0431 18 12.6282 18H5.34272C6.16155 17.4951 6.90672 16.605 7.4205 15.5484C8.245 13.8492 8.74272 11.5344 8.74272 9C8.74272 6.4656 8.245 4.1508 7.4205 2.4516C6.90578 1.3941 6.16061 0.504 5.34178 0H12.6272C15.0431 0 17 4.0293 17 9Z" fill="current"/>
<path fill-rule="evenodd" clip-rule="evenodd" d="M1.23722 2.8206C0.481667 4.3794 0 6.5637 0 9C0 11.4363 0.480722 13.6206 1.23722 15.1794C2.01544 16.7796 2.98917 17.55 3.88544 17.55C4.78267 17.55 5.75639 16.7796 6.53367 15.1794C7.29111 13.6206 7.77089 11.4372 7.77089 9C7.77089 6.5628 7.29111 4.3794 6.53367 2.8206C5.75639 1.2204 4.78267 0.45 3.88544 0.45C2.98822 0.45 2.01544 1.2204 1.23722 2.8206ZM2.42817 9C2.42817 11.9826 3.08078 14.4 3.88544 14.4C4.62872 14.4 5.24167 12.339 5.33139 9.675H4.37278C4.27836 9.67643 4.18457 9.66009 4.09679 9.62692C4.00901 9.59374 3.92896 9.54439 3.86123 9.48169C3.79349 9.41898 3.73941 9.34416 3.70208 9.2615C3.66475 9.17884 3.6449 9.08998 3.64367 9C3.6449 8.91002 3.66475 8.82116 3.70208 8.7385C3.73941 8.65584 3.79349 8.58102 3.86123 8.51831C3.92896 8.45561 4.00901 8.40626 4.09679 8.37308C4.18457 8.33991 4.27836 8.32357 4.37278 8.325H5.33233C5.24167 5.661 4.62872 3.6 3.88639 3.6C3.07983 3.6 2.42817 6.0174 2.42817 9Z" fill="current"/>
</svg>
