<svg width="64" height="64" viewBox="0 0 64 64" fill="none" xmlns="http://www.w3.org/2000/svg">
<rect width="64" height="64" rx="10" fill="#CD3129"/>
<path d="M28.742 45.19C24.9927 45.19 22.2313 44.5313 20.458 43.214C18.71 41.8713 17.836 39.8193 17.836 37.058C17.836 36.3993 17.912 35.728 18.064 35.044H24.144C24.0933 35.3733 24.0553 35.69 24.03 35.994C24.0047 36.298 23.992 36.5513 23.992 36.754C23.992 38.1473 24.5113 39.0847 25.55 39.566C26.5887 40.022 27.9947 40.25 29.768 40.25H32.162C34.3153 40.25 35.8353 39.908 36.722 39.224C37.634 38.5147 38.09 37.1973 38.09 35.272V17.83H44.17V35.272C44.17 37.5013 43.828 39.3507 43.144 40.82C42.46 42.2893 41.32 43.3913 39.724 44.126C38.128 44.8353 35.9493 45.19 33.188 45.19H28.742Z" fill="white"/>
</svg>
