<svg width="20" height="20" viewBox="0 0 20 20" fill="none" xmlns="http://www.w3.org/2000/svg">
<path d="M8.98013 0.0482973C3.27952 0.594825 -0.839757 6.03082 0.146137 11.6913C1.24917 17.9861 7.8771 21.6654 13.8022 19.2548C15.4616 18.5814 17.287 17.1078 18.2534 15.6634C21.2111 11.2521 20.3325 5.4355 16.223 2.17585C14.1829 0.546028 11.6157 -0.205448 8.98013 0.0482973ZM12.2502 1.30726C15.3933 2.12705 17.902 4.65475 18.7024 7.80704C19.0148 9.04649 19.0343 10.8129 18.7414 12.0231C18.0972 14.707 16.3792 16.8443 13.9096 18.0544C12.504 18.7376 11.7328 18.9035 10.0051 18.9035C8.27731 18.9035 7.50617 18.7376 6.10054 18.0544C2.96716 16.5222 1.07346 13.5163 1.07346 10.0615C1.07346 7.5533 1.88365 5.50382 3.5626 3.79592C5.00727 2.31248 6.70574 1.42438 8.63848 1.11207C9.54629 0.975443 11.3521 1.07304 12.2502 1.30726Z" fill="white"/>
<path d="M4.82184 4.27413C3.94333 4.6645 3.77738 5.7478 4.48996 6.43096L4.7828 6.71398V13.2918L4.45091 13.6237C3.82619 14.2483 3.9238 15.1266 4.67542 15.6243C5.75893 16.3465 7.04743 15.1364 6.48127 13.9457C6.39342 13.7603 6.21771 13.5456 6.09082 13.4577C5.85654 13.3114 5.85654 13.2821 5.85654 11.8962V10.4811L7.59406 10.5006L9.32181 10.5299L9.38038 13.2138L8.98017 13.5944C8.71661 13.8481 8.57995 14.0531 8.57019 14.2483C8.53115 14.9997 8.68733 15.3413 9.20468 15.6536C10.0442 16.1709 11.1277 15.5365 11.1277 14.5313C11.1277 14.1019 10.8543 13.5749 10.5517 13.4089C10.3565 13.3114 10.3468 13.2138 10.3468 11.8962V10.4811H12.5821C14.4758 10.4811 14.837 10.4616 14.9346 10.3347C15.0224 10.2274 15.081 9.65157 15.1103 8.47068L15.1591 6.77254L15.53 6.40168C15.9986 5.93323 16.0962 5.46477 15.8521 4.95728C15.3543 3.96182 14.0561 3.88375 13.5485 4.83041C13.2263 5.4355 13.3337 6.0113 13.8608 6.47975L14.1439 6.72374L14.0268 9.50518H10.3468V8.09006C10.3468 6.77254 10.3565 6.67494 10.5517 6.57735C10.8641 6.41144 11.1277 5.88443 11.1277 5.44526C11.1277 4.33268 9.84892 3.76663 8.98017 4.48883C8.38473 4.99632 8.40425 5.94299 9.03873 6.46024L9.38038 6.74326L9.32181 9.45638L7.59406 9.48566L5.85654 9.50518V8.09006C5.85654 6.6847 5.85654 6.67494 6.11034 6.51879C6.86196 6.02106 6.77411 4.7621 5.9444 4.31316C5.55394 4.10821 5.24158 4.09846 4.82184 4.27413Z" fill="white"/>
</svg>
