<svg width="20" height="16" viewBox="0 0 20 16" fill="none" xmlns="http://www.w3.org/2000/svg">
<path d="M8.4493 11.5C8.84926 11.9 9.36589 12.096 9.99917 12.088C10.6324 12.08 11.0991 11.8507 11.399 11.4L16.9986 3L8.59928 8.6C8.14932 8.9 7.91201 9.35834 7.88734 9.975C7.86268 10.5917 8.05 11.1 8.4493 11.5ZM9.99917 0C10.9824 0 11.9283 0.137334 12.8369 0.412C13.7455 0.686667 14.5994 1.09933 15.3987 1.65L13.4989 2.85C12.9489 2.56667 12.3783 2.35433 11.787 2.213C11.1957 2.07167 10.5998 2.00067 9.99917 2C7.78268 2 5.89517 2.77933 4.33664 4.338C2.7781 5.89667 1.99917 7.784 1.99983 10C1.99983 10.7 2.09583 11.3917 2.28781 12.075C2.47979 12.7583 2.75044 13.4 3.09974 14H16.8986C17.2819 13.3667 17.5612 12.7083 17.7365 12.025C17.9118 11.3417 17.9992 10.6333 17.9985 9.9C17.9985 9.3 17.9275 8.71667 17.7855 8.15C17.6435 7.58333 17.4312 7.03334 17.1486 6.5L18.3485 4.6C18.8484 5.38334 19.2444 6.21667 19.5364 7.1C19.8283 7.98334 19.9823 8.9 19.9983 9.85C20.015 10.8 19.9067 11.7083 19.6734 12.575C19.44 13.4417 19.0984 14.2667 18.6484 15.05C18.4651 15.35 18.2151 15.5833 17.8985 15.75C17.5819 15.9167 17.2486 16 16.8986 16H3.09974C2.74977 16 2.41647 15.9167 2.09982 15.75C1.78318 15.5833 1.53321 15.35 1.34989 15.05C0.91659 14.3 0.583285 13.5043 0.349971 12.663C0.116657 11.8217 0 10.934 0 10C0 8.61667 0.262645 7.321 0.787934 6.113C1.31322 4.905 2.02983 3.84667 2.93776 2.938C3.84568 2.02933 4.90759 1.31267 6.12349 0.788C7.33939 0.263334 8.63128 0.000666667 9.99917 0Z" fill="white"/>
</svg>
