<svg width="9" height="6" viewBox="0 0 9 6" fill="none" xmlns="http://www.w3.org/2000/svg">
<path d="M8.09976 0.500001L0.899555 0.500001C0.826656 0.500191 0.7552 0.516976 0.692879 0.548547C0.630557 0.580117 0.579729 0.625279 0.545867 0.679171C0.512004 0.733063 0.496389 0.793644 0.500702 0.854394C0.505016 0.915143 0.529094 0.97376 0.570346 1.02394L4.17045 5.36501C4.31965 5.545 4.67886 5.545 4.82847 5.36501L8.42857 1.02394C8.47024 0.973865 8.49468 0.915219 8.49922 0.854368C8.50377 0.793518 8.48826 0.73279 8.45436 0.678784C8.42047 0.624778 8.3695 0.579558 8.30698 0.548039C8.24446 0.51652 8.17279 0.499905 8.09976 0.500001Z" fill="white"/>
</svg>
