<svg width="24" height="21" viewBox="0 0 24 21" fill="none" xmlns="http://www.w3.org/2000/svg">
<path d="M1.2 0.5H22.8C23.1183 0.5 23.4235 0.617063 23.6485 0.825437C23.8736 1.03381 24 1.31643 24 1.61111V19.3889C24 19.6836 23.8736 19.9662 23.6485 20.1746C23.4235 20.3829 23.1183 20.5 22.8 20.5H1.2C0.88174 20.5 0.576515 20.3829 0.351472 20.1746C0.126428 19.9662 0 19.6836 0 19.3889V1.61111C0 1.31643 0.126428 1.03381 0.351472 0.825437C0.576515 0.617063 0.88174 0.5 1.2 0.5ZM7.8 12.7222V14.9444H10.8V17.1667H13.2V14.9444H14.4C15.1957 14.9444 15.9587 14.6518 16.5213 14.1309C17.0839 13.6099 17.4 12.9034 17.4 12.1667C17.4 11.43 17.0839 10.7234 16.5213 10.2025C15.9587 9.68155 15.1957 9.38889 14.4 9.38889H9.6C9.44087 9.38889 9.28826 9.33036 9.17574 9.22617C9.06321 9.12198 9 8.98068 9 8.83333C9 8.68599 9.06321 8.54468 9.17574 8.4405C9.28826 8.33631 9.44087 8.27778 9.6 8.27778H16.2V6.05556H13.2V3.83333H10.8V6.05556H9.6C8.80435 6.05556 8.04129 6.34821 7.47868 6.86915C6.91607 7.39008 6.6 8.09662 6.6 8.83333C6.6 9.57005 6.91607 10.2766 7.47868 10.7975C8.04129 11.3185 8.80435 11.6111 9.6 11.6111H14.4C14.5591 11.6111 14.7117 11.6696 14.8243 11.7738C14.9368 11.878 15 12.0193 15 12.1667C15 12.314 14.9368 12.4553 14.8243 12.5595C14.7117 12.6637 14.5591 12.7222 14.4 12.7222H7.8Z" fill="#2CD97C"/>
</svg>
