<svg width="42" height="14" viewBox="0 0 42 14" fill="current" xmlns="http://www.w3.org/2000/svg">
<path d="M34.7337 7.60772e-06C32.9977 7.60772e-06 31.4053 0.586712 30.1558 1.56455C28.8626 0.550322 27.2454 -0.00236508 25.5779 7.60772e-06C23.8419 7.60772e-06 22.2495 0.586712 21 1.56455C19.7068 0.550322 18.0896 -0.00236508 16.4221 7.60772e-06C14.6861 7.60772e-06 13.0937 0.586712 11.8442 1.56455C10.7781 0.731078 9.48875 0.20566 8.12544 0.0491703C6.76214 -0.107319 5.38072 0.111525 4.14121 0.680349C2.9017 1.24917 1.85484 2.1447 1.12192 3.26317C0.388996 4.38164 0 5.67729 0 7C0 8.32272 0.388996 9.61836 1.12192 10.7368C1.85484 11.8553 2.9017 12.7508 4.14121 13.3197C5.38072 13.8885 6.76214 14.1073 8.12544 13.9508C9.48875 13.7943 10.7781 13.2689 11.8442 12.4354C13.0937 13.4133 14.6861 14 16.4221 14C18.1581 14 19.7505 13.4133 21 12.4354C22.2495 13.4133 23.8419 14 25.5779 14C27.3139 14 28.9063 13.4133 30.1558 12.4354C31.0589 13.1415 32.1247 13.6284 33.2637 13.8551C34.4026 14.0819 35.5815 14.042 36.7011 13.7386C37.8207 13.4353 38.8484 12.8775 39.6977 12.112C40.5471 11.3466 41.1933 10.3959 41.5821 9.33984C41.9708 8.28381 42.0908 7.15329 41.9318 6.04332C41.7729 4.93334 41.3397 3.87635 40.6686 2.96118C39.9976 2.04601 39.1083 1.2994 38.0755 0.78412C37.0428 0.268836 35.8967 -6.83109e-05 34.7337 7.60772e-06ZM30.1558 10.146C29.4739 9.22863 29.1079 8.12831 29.1093 7C29.1093 5.82659 29.4978 4.74085 30.1558 3.85405C30.8138 4.74085 31.2023 5.82659 31.2023 7C31.2023 8.17341 30.8138 9.25915 30.1558 10.146ZM21 10.146C20.3181 9.22863 19.9521 8.12831 19.9535 7C19.9535 5.82659 20.342 4.74085 21 3.85405C21.658 4.74085 22.0465 5.82659 22.0465 7C22.0465 8.17341 21.658 9.25915 21 10.146ZM11.8442 10.146C11.1623 9.22863 10.7963 8.12831 10.7977 7C10.7977 5.82659 11.1862 4.74085 11.8442 3.85405C12.5022 4.74085 12.8907 5.82659 12.8907 7C12.8907 8.17341 12.5022 9.25915 11.8442 10.146ZM1.64195 7C1.64237 5.98892 1.9364 4.99813 2.49081 4.13965C3.04522 3.28117 3.83788 2.58925 4.77917 2.14214C5.72045 1.69503 6.77281 1.51057 7.81724 1.6096C8.86166 1.70864 9.8565 2.08723 10.6892 2.70256C9.69427 3.92982 9.15459 5.44275 9.15628 7C9.15628 8.62018 9.73026 10.1122 10.6892 11.2974C9.8565 11.9128 8.86166 12.2914 7.81724 12.3904C6.77281 12.4894 5.72045 12.305 4.77917 11.8579C3.83788 11.4108 3.04522 10.7188 2.49081 9.86036C1.9364 9.00188 1.64237 8.01108 1.64195 7ZM12.9992 11.2974C13.9942 10.0702 14.5338 8.55725 14.5322 7C14.5322 5.37982 13.9582 3.88777 12.9992 2.70256C13.9803 1.97487 15.1839 1.58064 16.4221 1.58141C17.7101 1.58141 18.8965 1.99952 19.845 2.70256C18.8496 3.92957 18.3098 5.44267 18.3121 7C18.3121 8.62018 18.886 10.1122 19.845 11.2974C18.8639 12.0251 17.6603 12.4194 16.4221 12.4186C15.1838 12.4203 13.9799 12.0259 12.9992 11.2974ZM22.155 11.2974C23.1504 10.0704 23.6902 8.55733 23.6879 7C23.6879 5.37982 23.1139 3.88777 22.155 2.70087C23.1034 1.99952 24.2899 1.57973 25.5779 1.57973C26.8659 1.57973 28.0523 1.99784 29.0008 2.70087C28.0054 3.92788 27.4656 5.44098 27.4678 6.99831C27.4678 8.6185 28.0418 10.1105 29.0008 11.2958C28.0197 12.0235 26.8161 12.4177 25.5779 12.4169C24.3396 12.4198 23.1355 12.026 22.155 11.2974ZM34.7337 12.4186C33.4953 12.4203 32.2914 12.0259 31.3108 11.2974C32.3055 10.0701 32.8451 8.5572 32.8437 7C32.8437 5.37982 32.2697 3.88777 31.3108 2.70256C32.0198 2.17793 32.8485 1.8237 33.728 1.66925C34.6075 1.51479 35.5126 1.56456 36.3682 1.81443C37.2238 2.0643 38.0052 2.50707 38.6477 3.10602C39.2902 3.70497 39.7752 4.44285 40.0625 5.25847C40.3499 6.07409 40.4312 6.94396 40.2999 7.79593C40.1686 8.64791 39.8284 9.45745 39.3074 10.1574C38.7864 10.8574 38.0998 11.4277 37.3044 11.8209C36.509 12.2141 35.6277 12.419 34.7337 12.4186Z" fill="current"/>
</svg>
