<svg width="46" height="16" viewBox="0 0 46 16" fill="current" xmlns="http://www.w3.org/2000/svg">
<path d="M22.1087 0.5C21.1308 0.581477 20.1692 0.802417 19.2529 1.1562C19.0018 1.2527 18.7373 1.41675 18.4594 1.30867C17.2059 1.01338 15.9083 1.12339 14.6414 1.26042C12.995 1.43412 11.3447 1.25463 9.69833 1.17357C8.19696 1.12325 6.69397 1.15546 5.19608 1.27007C3.8295 1.35499 2.45717 1.25077 1.09825 1.10409C0.929583 1.10023 0.757083 1.06549 0.590333 1.10023C0.331583 1.27007 0.168667 1.54799 0 1.80082V1.93206C0.354583 2.237 0.774333 2.43772 1.19792 2.623C1.07908 2.91444 1.00433 3.22131 0.94875 3.53011C1.45475 3.76943 1.98375 3.96822 2.47442 4.24035C2.41883 4.4237 2.33642 4.59933 2.31533 4.7904C2.30383 4.90427 2.36133 5.02393 2.47442 5.06446C2.87692 5.27676 3.33308 5.33852 3.749 5.50836C3.78925 5.52766 3.84483 5.54696 3.84483 5.601C3.87742 5.84804 3.88317 6.09895 3.93492 6.34406C3.96662 6.37351 4.00373 6.39646 4.04417 6.41161C4.59425 6.59496 5.17117 6.66444 5.73275 6.78989C5.79792 7.00219 5.77492 7.27046 5.93592 7.43837C6.65467 7.81665 7.50758 7.63137 8.26083 7.87841C8.44867 8.06369 8.40458 8.43811 8.68825 8.54233C9.25558 8.71603 9.86508 8.56163 10.4478 8.63883C10.58 8.7913 10.5953 9.01132 10.7237 9.16572C10.809 9.25476 10.925 9.30729 11.0477 9.3124C11.5977 9.32784 12.1248 9.14449 12.6692 9.0808C12.7823 9.27187 12.8359 9.55751 13.0774 9.61541C13.5163 9.70226 13.9437 9.53435 14.352 9.39153C14.5053 9.89333 14.6702 10.3971 14.9327 10.8545C15.8393 12.5104 17.4014 13.7476 19.1456 14.4076C19.3909 14.4771 19.4753 14.7454 19.6017 14.9403C19.8452 14.8477 20.0847 14.7434 20.3377 14.6817L20.7211 15.2549C20.9492 15.1391 21.1753 15.0194 21.4034 14.8998C21.5567 15.0812 21.7101 15.2607 21.8673 15.4402L22.4614 15.0156C22.6339 15.1661 22.793 15.3321 22.9482 15.5H23.0153C23.1993 15.3359 23.3737 15.1584 23.5558 14.9924C23.759 15.141 23.9583 15.2935 24.1615 15.446C24.3167 15.2626 24.4739 15.0793 24.633 14.8978C24.863 15.0136 25.0892 15.1352 25.3172 15.253C25.438 15.0638 25.5549 14.8747 25.6718 14.6836C25.9402 14.7434 26.1893 14.8554 26.4462 14.9461C26.5094 14.8148 26.5707 14.6797 26.6417 14.5524C26.7432 14.2783 27.0633 14.2358 27.2857 14.1046C29.1487 13.2419 30.6973 11.6226 31.3087 9.63085C31.6192 9.74666 31.97 9.88948 32.2997 9.75438C32.4722 9.6656 32.5392 9.47645 32.6217 9.31433C33.0817 9.41662 33.5417 9.61155 34.0208 9.51119C34.27 9.43592 34.3927 9.20046 34.5057 8.98816C34.9466 9.04606 35.3797 9.17151 35.8283 9.13291C36.0276 9.10782 36.3017 9.13291 36.4377 8.94763C36.5508 8.76235 36.5662 8.53268 36.6754 8.34547C37.2792 8.26441 37.9174 8.42653 38.5039 8.20651C38.6879 7.99807 38.6898 7.68541 38.8566 7.46732C39.33 7.43258 39.8053 7.46732 40.2787 7.43258C40.3607 7.42664 40.4403 7.40223 40.5116 7.36114C40.583 7.32004 40.6442 7.26333 40.6908 7.19519C40.7982 6.98868 40.8135 6.75129 40.8825 6.53127C40.8959 6.48495 40.9208 6.43477 40.9668 6.41354C41.4287 6.22054 41.9903 6.37108 42.4139 6.07193C42.6209 5.84032 42.4542 5.47362 42.5826 5.21693C42.9793 4.98919 43.4968 5.04709 43.8648 4.7518C44.1121 4.5395 43.9262 4.20754 43.8917 3.9412C44.3229 3.79259 44.7963 3.71153 45.1509 3.40273C45.0512 3.13253 44.9343 2.87198 44.8251 2.60757C45.2322 2.42189 45.6249 2.20577 46 1.96101V1.7931C45.8683 1.5436 45.6915 1.32105 45.4787 1.1369C45.3426 1.03461 45.1528 1.1176 44.9995 1.10216C43.6655 1.22182 42.3238 1.35306 40.9841 1.27972C40.1848 1.23726 39.3875 1.16006 38.5882 1.16006C37.5877 1.16006 36.5872 1.13111 35.5906 1.21217C34.1147 1.30095 32.6312 1.41096 31.1573 1.24498C29.8981 1.09637 28.5986 1.02303 27.3604 1.34727C27.163 1.43026 26.956 1.36464 26.7758 1.27586C25.7868 0.82424 24.7116 0.60422 23.6363 0.5H22.1087ZM23.1073 0.79915C23.7341 0.82617 24.3608 0.89372 24.9742 1.03461C25.5683 1.17357 26.1663 1.32218 26.7183 1.58852C26.5209 1.71397 26.2833 1.90504 26.0398 1.80082C24.9836 1.42544 23.871 1.2361 22.7508 1.24112C22.126 1.27972 21.5012 1.3299 20.8917 1.48237C20.5007 1.55957 20.125 1.70625 19.7302 1.76994C19.5462 1.71976 19.3775 1.62905 19.2088 1.54027C20.452 1.05372 21.7736 0.802472 23.1073 0.79915ZM45.0858 1.33569C45.4116 1.31639 45.6761 1.57887 45.8428 1.83749C45.1948 2.17046 44.4753 2.33751 43.7479 2.32385C40.5854 2.37596 37.4268 2.50721 34.2662 2.58827C34.2662 2.64038 34.27 2.69249 34.2738 2.7446C34.2403 2.64645 34.2096 2.54734 34.1818 2.44738C34.8737 2.35087 35.5618 2.21577 36.2614 2.17331C37.5418 2.07681 38.8298 2.04207 40.1139 2.02856C40.2814 2.03602 40.4466 1.98713 40.5835 1.8896C39.5619 1.77959 38.5327 1.83942 37.5092 1.86451C36.7981 1.91662 36.0832 1.9282 35.374 2.01891C34.4252 2.13471 33.4784 2.31613 32.5201 2.32771C31.9221 2.33736 31.3222 2.38947 30.7242 2.34701C29.9767 2.3335 29.2177 2.26595 28.4817 2.43387C28.2747 2.50142 28.0236 2.57475 27.9412 2.80443C27.7629 3.16727 27.9603 3.57257 28.1233 3.9026C28.3207 4.32141 28.658 4.72285 28.5967 5.21886C28.5679 5.39449 28.4203 5.51029 28.2862 5.61065C28.1491 5.45785 28.0223 5.29601 27.9067 5.12622C27.9833 4.97182 28.1098 4.82707 28.0753 4.63986C28.0121 4.25386 27.7342 3.94892 27.4735 3.67872C27.0978 3.31202 26.68 2.97041 26.4251 2.50142C26.3503 2.36631 26.2986 2.17331 26.4423 2.0633C26.864 1.76222 27.3834 1.65993 27.8837 1.57694C29.2541 1.38394 30.636 1.54799 32.0103 1.60589C32.6868 1.67344 33.3692 1.66379 34.0477 1.60589C35.6538 1.50167 37.2677 1.33955 38.8777 1.44763C39.6022 1.48816 40.3286 1.52097 41.0531 1.53834C42.3794 1.59238 43.6981 1.41868 45.0206 1.34341C45.0421 1.33962 45.0639 1.33705 45.0858 1.33569ZM1.05417 1.34148C1.42983 1.33762 1.8055 1.39359 2.17925 1.41868C3.21808 1.51132 4.26075 1.57115 5.30342 1.52676C6.59525 1.51132 7.88133 1.35692 9.17317 1.4264C10.4899 1.46886 11.799 1.61554 13.1177 1.65607C14.1239 1.62133 15.1283 1.54027 16.1345 1.49395C17.1561 1.46114 18.2179 1.47272 19.182 1.85486C19.3679 1.93206 19.5979 2.03435 19.642 2.25437C19.6037 2.55931 19.3737 2.79478 19.1858 3.02445C18.8504 3.44133 18.3636 3.71925 18.0933 4.1921C17.8825 4.4623 17.8518 4.8676 18.0837 5.13394C17.9582 5.30272 17.8177 5.4597 17.664 5.60293C17.5049 5.45625 17.3573 5.27483 17.3765 5.03937C17.4493 4.37159 18.0416 3.89488 18.1106 3.22517C18.17 2.99164 18.0512 2.7639 17.9036 2.59406C17.6247 2.45137 17.319 2.3698 17.0066 2.35473C15.9294 2.26209 14.8484 2.40684 13.7693 2.34122C12.7017 2.34894 11.6476 2.16173 10.5934 2.01891C9.24536 1.89712 7.89306 1.82887 6.53967 1.81433C6.16592 1.80854 5.79217 1.84328 5.41842 1.87609C5.53917 1.97645 5.68675 2.044 5.84967 2.02663C7.25458 2.04593 8.6595 2.06909 10.0606 2.19068C10.649 2.24665 11.2297 2.35281 11.8162 2.44352L11.7722 2.60563C10.7448 2.54194 9.71367 2.55159 8.68442 2.50913C6.83483 2.44158 4.98525 2.38369 3.13567 2.35281C2.34792 2.3007 1.52375 2.38561 0.7705 2.09418C0.559667 2.02277 0.36225 1.92434 0.162917 1.8317C0.308583 1.65221 0.456167 1.44763 0.680417 1.3685C0.805 1.3492 0.929583 1.34148 1.05417 1.34148ZM23.0096 1.5615C24.0566 1.55553 25.0952 1.74937 26.0705 2.13278C26.0782 2.3335 26.0149 2.55352 26.1165 2.73688C26.2019 2.89532 26.3048 3.04357 26.4232 3.17885C26.7682 3.58801 27.209 3.91804 27.5502 4.33106C27.6878 4.48147 27.7906 4.66077 27.8511 4.85602C27.1451 4.21363 26.3197 3.71839 25.4227 3.39887C24.4335 3.05083 23.3821 2.91901 22.3384 3.0122C21.2947 3.10538 20.2827 3.42142 19.3698 3.93927C19.0363 4.12841 18.7335 4.36387 18.4383 4.61091L18.147 4.85795C18.1701 4.75784 18.209 4.66207 18.262 4.57424C18.6894 3.96629 19.3277 3.54555 19.7589 2.94146C19.9697 2.68476 19.9506 2.34316 19.918 2.03435C20.9198 1.72446 21.9616 1.56513 23.0096 1.5615ZM34.0534 2.43966C34.0841 2.52458 34.1109 2.6095 34.1378 2.69442C33.5378 3.04182 32.8191 2.95497 32.1597 2.86812C32.0102 2.85461 31.9221 2.72529 31.8627 2.59984C32.591 2.52071 33.3251 2.52651 34.0534 2.43966ZM11.9159 2.47054C12.6557 2.48212 13.3937 2.51879 14.1277 2.59406C14.0702 2.69249 14.0243 2.83338 13.8939 2.84882C13.5048 2.91637 13.1081 2.92795 12.7171 2.94339C12.4143 2.96269 12.1363 2.82373 11.8737 2.69442L11.9159 2.47054ZM14.2293 2.57668C14.5245 2.58247 14.8216 2.58634 15.1167 2.60371C15.9026 2.63652 16.7095 2.57283 17.4742 2.80636C17.664 2.87198 17.8729 2.96076 17.9707 3.1499C18.0454 3.48186 17.8557 3.77715 17.6947 4.04542C17.5356 4.33685 17.3171 4.61091 17.2442 4.94094C17.1522 5.24974 17.3401 5.50836 17.4819 5.75733C17.2673 5.76505 17.0028 5.85576 16.8341 5.68013C16.7555 5.52187 16.8475 5.33466 16.8801 5.17254L16.5734 5.44853L16.1997 5.42537C16.1709 5.03358 16.4699 4.74987 16.6233 4.41984C16.3587 4.65723 16.0904 4.99305 15.6975 4.96217C15.5422 4.96796 15.4234 4.76145 15.5192 4.636C15.732 4.36387 16.008 4.14578 16.2073 3.86014C15.9697 4.04542 15.7282 4.23649 15.4464 4.34457C15.2362 4.39759 15.014 4.37151 14.8216 4.27123C14.8561 3.87751 15.2701 3.73855 15.4924 3.46642C15.249 3.56871 15.0324 3.76364 14.7507 3.74627C14.6395 3.75013 14.5302 3.71539 14.4248 3.6903C14.4057 3.35641 14.7526 3.23868 14.9481 3.03989C14.7756 3.07849 14.6088 3.15955 14.4306 3.15569C14.3117 3.11323 14.2197 3.01673 14.1162 2.94725C14.145 2.81987 14.1833 2.69634 14.2312 2.57668H14.2293ZM31.7783 2.57668C31.8128 2.72722 31.9451 2.92023 31.7688 3.0341C31.5771 3.27535 31.2551 3.07656 31.0212 3.03024C31.2359 3.21552 31.5675 3.35255 31.5656 3.69223C31.3816 3.72504 31.1822 3.78873 31.0002 3.71153C30.8315 3.64205 30.6686 3.5552 30.5037 3.47607C30.5555 3.52818 30.6092 3.57836 30.6647 3.62661L30.8315 3.77329C30.9408 3.87172 31.0481 3.97401 31.1382 4.08981C31.1688 4.22105 31.0749 4.36001 30.935 4.35808C30.4884 4.47195 30.1396 4.11297 29.8157 3.86786C29.9862 4.10139 30.1894 4.30404 30.3849 4.51441C30.4827 4.61863 30.4731 4.77496 30.5076 4.9062C30.3466 4.92743 30.1741 4.99112 30.0169 4.92164C29.7716 4.82128 29.5857 4.62249 29.3844 4.45265C29.5588 4.76145 29.8252 5.0413 29.7984 5.42151L29.3997 5.43695C29.3114 5.35287 29.2239 5.26795 29.1372 5.18219C29.1525 5.34045 29.2522 5.52187 29.1506 5.66469C29.0317 5.79979 28.8477 5.79014 28.6791 5.78628C28.6216 5.78628 28.566 5.78628 28.5142 5.79207C28.6043 5.5624 28.7826 5.36361 28.7768 5.10499C28.7078 4.42949 28.0907 3.97208 27.9987 3.30623C27.9795 3.01866 28.2938 2.88549 28.5219 2.8025C29.5837 2.52265 30.6916 2.6616 31.7783 2.57668ZM1.33783 2.58055C2.81367 2.58055 4.2895 2.65775 5.76533 2.67126C7.61108 2.71179 9.45683 2.7253 11.3007 2.77355C11.684 2.74653 12.0002 2.99743 12.3165 3.17306L12.282 3.53976C12.2254 3.56794 12.1685 3.5956 12.1114 3.62275L12.1612 3.48186C10.4382 3.52818 8.71892 3.64591 6.99583 3.69802C5.911 3.72118 4.83 3.81382 3.74325 3.79452C3.05693 3.81944 2.37066 3.74402 1.70583 3.57064C1.48542 3.50502 1.23242 3.47028 1.058 3.30623C1.05608 3.04568 1.19983 2.79671 1.33783 2.58055ZM44.6928 2.623C44.8155 2.83724 44.9458 3.05147 45.0359 3.28307C44.2118 3.55327 43.3301 3.53976 42.4752 3.50695C40.8882 3.50309 39.3013 3.4008 37.7142 3.34676C36.3745 3.285 35.0347 3.23096 33.695 3.15376C33.9691 2.9569 34.2796 2.7639 34.6265 2.77548C37.9826 2.76197 41.3368 2.62686 44.6928 2.623ZM13.8862 3.03603C14.0338 3.04568 14.1469 3.17885 14.2581 3.26763C14.2906 3.29457 14.3163 3.32894 14.3329 3.36788C14.3496 3.40682 14.3568 3.4492 14.3539 3.49151C14.2044 3.60731 14.007 3.62275 13.8307 3.66907C13.4742 3.73469 13.1215 3.84277 12.7573 3.85628C12.6289 3.8061 12.489 3.75013 12.4028 3.6324C12.3721 3.47028 12.4219 3.2464 12.6021 3.20394C13.0046 3.12288 13.4167 3.09972 13.8211 3.03989C13.8426 3.03592 13.8645 3.03462 13.8862 3.03603ZM32.0275 3.05147C32.4779 3.05147 32.9283 3.10937 33.3692 3.19236C33.5781 3.23289 33.5723 3.48186 33.626 3.64398C33.4535 3.74048 33.2867 3.89488 33.0702 3.85049C32.7577 3.80224 32.4511 3.72311 32.1406 3.66521C31.9738 3.62275 31.7822 3.60924 31.6461 3.49151C31.6557 3.28307 31.8684 3.1499 32.0294 3.05147H32.0275ZM22.8563 3.31781C24.5966 3.27921 26.3867 3.87751 27.6383 5.12236C28.3245 5.82681 28.8267 6.77445 28.8113 7.77998C28.8305 8.68708 28.4299 9.56716 27.8396 10.2388C26.7547 11.4779 25.1275 12.136 23.5156 12.2576C22.0596 12.3817 20.6024 12.0341 19.3564 11.2656C18.6952 10.841 18.0914 10.3006 17.6947 9.60962C17.2172 8.82099 17.0613 7.87695 17.2596 6.97517C17.4493 6.17421 17.9419 5.48134 18.5399 4.93515C19.6228 3.95085 21.0661 3.4394 22.5074 3.33325C22.6224 3.32553 22.7393 3.32167 22.8563 3.31781ZM33.6663 3.3622C34.0841 3.35255 34.5 3.41045 34.9178 3.42975C37.6778 3.59959 40.4417 3.69995 43.2017 3.86207C43.3799 3.88909 43.5812 3.85435 43.7441 3.94506C43.8533 4.10525 43.8821 4.30211 43.9108 4.49125C43.332 4.8483 42.6113 4.76145 41.9654 4.77882C41.1508 4.72478 40.3363 4.62442 39.5236 4.54529C39.2524 4.5184 38.9808 4.49524 38.709 4.47581C37.0377 4.3079 35.3606 4.20754 33.6969 3.97787C33.709 3.77149 33.6987 3.5644 33.6663 3.36027V3.3622ZM23.023 3.3815C22.8007 3.3815 22.5822 3.39115 22.3617 3.41238C20.8188 3.56099 19.2433 4.16508 18.2198 5.38098C17.6295 6.05262 17.227 6.94236 17.2922 7.85525C17.3267 9.15607 18.1508 10.3121 19.1801 11.0398C20.8744 12.2325 23.1227 12.4873 25.0815 11.889C25.9632 11.6014 26.8123 11.1556 27.4678 10.4858C28.2881 9.68682 28.8362 8.52303 28.6848 7.35538C28.5602 6.40003 28.014 5.53924 27.2991 4.91392C26.1299 3.87944 24.5678 3.37957 23.023 3.3815ZM11.6859 3.71925C11.799 3.71925 11.9121 3.71925 12.0271 3.72311C12.3108 3.80417 12.5043 4.04542 12.7152 4.23649C12.6634 4.3851 12.6193 4.53564 12.5772 4.68811C12.7152 4.79812 12.8627 4.89655 13.018 4.97761C12.0271 5.13973 11.0438 5.3501 10.0587 5.54117L9.16933 5.73803L8.27808 5.92717C7.68392 6.04876 7.08783 6.16457 6.48792 6.263C5.71167 6.40196 4.90092 6.3595 4.14575 6.12983C3.92917 6.06807 3.8755 5.81716 3.96367 5.62416C3.99625 5.43116 4.23392 5.45046 4.37575 5.42151C6.82142 5.17061 9.25942 4.85216 11.6974 4.5588C12.0386 4.52213 12.4257 4.51441 12.6749 4.24421C11.3313 4.36773 9.98775 4.51827 8.64608 4.66881L6.63167 4.8869C5.96083 4.95638 5.28808 5.022 4.61533 5.0799C3.86017 5.1571 3.07817 5.08376 2.37283 4.78461C2.44175 4.56414 2.53429 4.35187 2.64883 4.15157C5.31875 4.02998 7.99442 3.97401 10.6605 3.77522C11.0017 3.75978 11.3428 3.72697 11.6859 3.71925ZM14.0933 3.84277C14.1715 3.83931 14.2499 3.84448 14.3271 3.85821C14.4881 3.90646 14.6376 3.98752 14.7871 4.06086C14.7698 4.31562 14.5226 4.38124 14.3309 4.47002C14.0913 4.56845 13.8575 4.68232 13.6122 4.76531C13.3017 4.86567 12.9892 4.71127 12.7037 4.5974C12.742 4.46616 12.7573 4.31948 12.8378 4.20561C13.0126 4.09534 13.2053 4.01694 13.4071 3.97401C13.6313 3.91611 13.8613 3.85049 14.0933 3.84277ZM31.8186 3.84277C32.1578 3.83505 32.4894 3.94699 32.8095 4.04735C32.9322 4.09753 33.0855 4.11683 33.1775 4.22491C33.2388 4.34071 33.2542 4.47581 33.3002 4.59547C33.0203 4.69776 32.7213 4.87532 32.4147 4.77496C32.0025 4.6211 31.5982 4.44654 31.2033 4.25193C31.2378 4.01454 31.4659 3.90453 31.6729 3.85435C31.7212 3.84789 31.7699 3.84403 31.8186 3.84277ZM33.5187 4.17473C33.9767 4.16701 34.4272 4.25386 34.8814 4.30211C36.3342 4.46616 37.789 4.62635 39.2438 4.77689C40.2845 4.90813 41.3329 4.98533 42.3717 5.14359C42.3967 5.3501 42.6132 5.74575 42.3085 5.81909C41.5984 5.93316 40.8763 5.94939 40.1618 5.86734C37.8963 5.51222 35.6385 5.10692 33.3692 4.77496C33.3608 4.57697 33.3454 4.37935 33.3232 4.18245C33.3883 4.17859 33.4535 4.17473 33.5187 4.17473ZM23.2127 4.38896C23.6977 4.39089 24.1787 4.45072 24.6464 4.58775C25.1869 4.74987 25.7351 5.02393 26.0456 5.51801C26.2583 5.82681 26.2832 6.22825 26.2123 6.58724C26.105 7.02342 25.7083 7.29169 25.3652 7.5368L25.3728 7.61786C25.8807 7.96719 26.4347 8.45548 26.4174 9.13291C26.4653 9.62313 26.2066 10.0825 25.8558 10.4009C25.6086 10.5901 25.3383 10.7541 25.047 10.8661C24.2228 11.1536 23.3373 11.1903 22.4748 11.1324C21.4168 10.9992 20.309 10.7001 19.5289 9.92229C19.6631 9.74087 19.8356 9.59418 19.9583 9.40504C19.9981 8.36651 20.0019 7.32689 19.9697 6.28808C19.8432 6.09701 19.6688 5.94648 19.527 5.76698C20.0522 5.04323 20.93 4.71513 21.7695 4.53178C22.2429 4.44107 22.7278 4.38703 23.2127 4.38896ZM31.1918 4.51055C31.2474 4.51055 31.303 4.51248 31.3567 4.52599C31.6806 4.65144 31.993 4.80391 32.3035 4.96024C32.3725 5.00656 32.476 5.02972 32.5067 5.1185C32.5143 5.2729 32.4415 5.44274 32.2901 5.49871C32.0697 5.59135 31.8052 5.64925 31.5809 5.54503C31.2148 5.38291 30.8813 5.15517 30.5382 4.95252C30.5708 4.87146 30.5862 4.76917 30.6418 4.70162C30.6616 4.67872 30.6866 4.66086 30.7146 4.64951C30.8619 4.56907 31.0247 4.52167 31.1918 4.51055ZM14.7794 4.51055C14.9658 4.51319 15.1482 4.56511 15.3084 4.66109C15.433 4.72092 15.4598 4.93129 15.341 5.00849C15.0305 5.22079 14.7047 5.41379 14.3558 5.55082C14.0817 5.64153 13.8057 5.53731 13.5508 5.44853L13.4742 5.07411C13.7962 4.90427 14.1258 4.74022 14.4593 4.59161C14.5579 4.53892 14.6678 4.5111 14.7794 4.51055ZM23.1553 4.84251C22.9747 4.84204 22.7942 4.85171 22.6147 4.87146C22.3551 4.90042 22.112 5.01432 21.9228 5.1957C21.6104 5.52187 21.5855 6.01016 21.6449 6.43284C21.6601 6.64098 21.7346 6.84031 21.8593 7.00699C21.984 7.17367 22.1538 7.30065 22.3483 7.37275C22.7949 7.52522 23.2875 7.5175 23.7379 7.39205C24.2248 7.228 24.4701 6.69339 24.4586 6.20703C24.4835 5.79593 24.3819 5.31536 24.0158 5.07604C23.7577 4.91553 23.4585 4.83306 23.1553 4.84251ZM33.2887 5.00656C33.8062 5.01814 34.3237 5.10692 34.8335 5.19763C36.4301 5.48713 38.0267 5.77856 39.6213 6.08157C40.0238 6.16456 40.4321 6.23405 40.8288 6.34792C40.7752 6.58917 40.7464 6.96552 40.4417 7.01184C39.4584 7.13729 38.4713 6.91534 37.5283 6.65093C35.9682 6.22632 34.3907 5.8519 32.8325 5.41572C32.7388 5.3947 32.6422 5.39013 32.5469 5.40221C32.5718 5.30185 32.5795 5.1957 32.6274 5.10499C32.7501 5.01235 32.9207 5.01814 33.0663 5.00849L33.2887 5.00656ZM13.3802 5.11271C13.4339 5.33273 13.4799 5.55468 13.5662 5.76312C12.351 6.13947 11.1377 6.51583 9.91683 6.86709C9.269 7.0543 8.63267 7.29748 7.96183 7.38819C7.35617 7.44223 6.73517 7.41328 6.14483 7.26081C5.90333 7.19519 5.83817 6.93271 5.83242 6.71269C7.53825 6.3402 9.23833 5.94261 10.9499 5.59907C11.7587 5.43502 12.558 5.20728 13.3802 5.11271ZM30.4328 5.21114C30.5568 5.20877 30.6775 5.252 30.7721 5.33273C31.0596 5.5238 31.3413 5.71873 31.6308 5.90401C31.6187 5.93054 31.6097 5.95839 31.6039 5.987L31.5847 6.07771C31.5675 6.13947 31.5445 6.19545 31.4889 6.22633C31.2398 6.25335 30.9733 6.30932 30.7299 6.21474C30.4538 6.03653 30.1991 5.82669 29.9709 5.58942C29.8827 5.51415 29.8923 5.36554 29.9671 5.28448C29.9928 5.25747 30.0264 5.23925 30.0629 5.23237C30.1798 5.22658 30.3083 5.20535 30.4328 5.21114ZM15.6496 5.21114C15.7473 5.21114 15.8451 5.21886 15.9409 5.23044C16.0732 5.26325 16.1632 5.4659 16.031 5.55661C15.732 5.85769 15.4215 6.23984 14.9634 6.26107C14.8101 6.25914 14.6567 6.26492 14.5072 6.23211C14.398 6.15877 14.4076 6.00051 14.3712 5.89243C14.7028 5.68013 15.019 5.4466 15.3602 5.24974C15.4541 5.22529 15.5506 5.21233 15.6477 5.21114H15.6496ZM32.6255 5.60486C32.936 5.63767 33.2312 5.73996 33.5321 5.8133C35.0003 6.24755 36.4703 6.67602 37.9366 7.11413C38.2107 7.19712 38.4905 7.2666 38.7531 7.38047C38.6802 7.56382 38.6112 7.77226 38.4407 7.88613C37.7383 8.03256 37.0097 7.98453 36.3323 7.74717C35.8148 7.54838 35.3222 7.29748 34.8143 7.07939C33.8943 6.68374 32.9782 6.27072 32.0448 5.90208C32.2422 5.81137 32.4185 5.66855 32.6255 5.60486ZM29.6297 5.68206C29.831 5.68206 29.9939 5.84418 30.1396 5.9677C30.2776 6.10666 30.4597 6.22053 30.5459 6.40196C30.5747 6.56601 30.4405 6.70883 30.3945 6.85551C30.1952 6.81691 29.946 6.89411 29.785 6.72813C29.5391 6.50839 29.3306 6.24955 29.1678 5.96192C29.1372 5.79593 29.3269 5.69557 29.4802 5.68978L29.5416 5.69171C29.5705 5.68511 29.6001 5.68187 29.6297 5.68206ZM16.422 5.68978C16.5812 5.69775 16.7345 5.7528 16.8628 5.84804C16.7031 6.17988 16.4819 6.47794 16.2112 6.7262C16.0693 6.8999 15.8278 6.87095 15.6362 6.81305C15.5154 6.72234 15.4713 6.56215 15.3985 6.43477C15.6343 6.18966 15.8585 5.9291 16.1441 5.74189C16.2314 5.70297 16.3266 5.68513 16.422 5.68978ZM13.8805 5.92138C13.9495 5.91824 14.0187 5.91953 14.0875 5.92524C14.283 5.95419 14.3079 6.1858 14.3807 6.33441C14.0396 6.45021 13.7272 6.6297 13.4071 6.78989C12.5752 7.19133 11.7645 7.62944 10.9346 8.03474C10.3692 8.33582 9.70217 8.28564 9.08308 8.29143C8.91058 8.27406 8.717 8.29143 8.56558 8.19107C8.46592 8.06176 8.42375 7.89771 8.37392 7.74331C8.8435 7.50399 9.36292 7.39591 9.84975 7.19712C10.7238 6.86516 11.6207 6.59882 12.5024 6.29002C12.9586 6.16071 13.4052 5.94454 13.8824 5.92331L13.8805 5.92138ZM28.6235 5.94261C28.8018 5.98507 29.0203 5.97156 29.1544 6.11824C29.3423 6.37493 29.532 6.64321 29.6393 6.94429C29.6048 7.17589 29.3442 7.33029 29.118 7.32064C29.0413 6.83235 28.8343 6.38459 28.6235 5.94261ZM17.3382 5.9484C17.1258 6.38864 16.97 6.8543 16.8743 7.33415C16.6922 7.29169 16.4642 7.24537 16.3837 7.05044C16.3262 6.95394 16.3817 6.84779 16.4258 6.76094C16.5475 6.52462 16.6919 6.30095 16.8571 6.09315C16.9932 5.98893 17.1772 5.98893 17.3382 5.9484ZM31.7419 6.00244C32.0908 6.06613 32.3974 6.26107 32.7156 6.41161C33.9825 7.00798 35.2456 7.614 36.5048 8.22967C36.4799 8.36477 36.4837 8.52689 36.3917 8.64269C36.0793 8.76428 35.7324 8.7141 35.4085 8.68129C35.0137 8.6369 34.6035 8.59058 34.2566 8.37249C33.2848 7.76454 32.3783 7.04658 31.3643 6.50811C31.5847 6.42705 31.6595 6.20124 31.7419 6.00244ZM14.8139 6.49267C14.9864 6.49267 15.1589 6.51969 15.3257 6.57373C14.9538 7.02149 14.4517 7.33029 13.9936 7.67576C13.4569 8.04246 12.9624 8.48057 12.3644 8.74305C11.8954 8.90295 11.4003 8.97108 10.9058 8.94377C10.6912 8.91675 10.5972 8.71603 10.5877 8.51917C11.7128 7.90157 12.8627 7.33222 13.9878 6.71848C14.237 6.56896 14.5239 6.49088 14.8139 6.49267ZM30.9638 6.52741C31.1897 6.55055 31.4038 6.64054 31.579 6.78603C32.4396 7.43258 33.2963 8.08685 34.1588 8.72954C34.2738 8.78937 34.3332 8.90517 34.3812 9.0229C34.1397 9.12712 33.8771 9.2545 33.6087 9.17344C33.5302 9.15414 33.4478 9.1387 33.3672 9.12133C33.12 9.08694 32.8825 9.00152 32.6696 8.87043C31.8512 8.34933 31.188 7.61593 30.3581 7.11027C30.5344 6.95201 30.5881 6.70497 30.7529 6.54478C30.8221 6.52918 30.893 6.52333 30.9638 6.52741ZM15.3314 6.86709C15.5499 7.21063 15.9716 7.0929 16.3051 7.18554C15.5767 7.71243 15.0286 8.4439 14.3079 8.98044C13.8709 9.30661 13.1905 9.43206 12.7477 9.05185C12.9643 8.7141 13.3036 8.49215 13.6045 8.23546C14.1795 7.77998 14.7411 7.30327 15.3314 6.86709ZM29.8099 7.10834C30.0208 7.15273 30.2565 7.1701 30.4213 7.33222C30.9657 7.79542 31.4774 8.29336 32.0237 8.75656C32.2096 8.93026 32.4587 9.07887 32.4798 9.36451C32.2977 9.43206 32.0927 9.50926 31.901 9.4282C31.8549 9.41596 31.8094 9.40114 31.7649 9.38381C31.4544 9.26222 31.1995 9.03062 30.9522 8.8106C30.484 8.3482 29.992 7.91078 29.4783 7.50013C29.5857 7.36696 29.6968 7.23572 29.8099 7.10834ZM16.2629 7.44802C16.4584 7.50013 16.6482 7.57347 16.8437 7.62365C16.8686 7.81665 16.882 8.00965 16.8935 8.20265C16.56 8.5404 16.3051 8.98623 15.8566 9.18695C15.5576 9.30275 15.2298 9.34328 14.9117 9.30275C14.8024 9.27959 14.7257 9.19274 14.6472 9.1194C15.18 8.55584 15.6822 7.9614 16.2629 7.44802ZM29.1602 7.58891C29.4496 7.58505 29.6393 7.81665 29.8195 8.00965C30.1952 8.44969 30.6245 8.83569 31.0117 9.26222C30.9293 9.37223 30.8392 9.5247 30.6667 9.4668C30.4634 9.47821 30.2601 9.44529 30.0706 9.3703C29.6719 9.1773 29.4093 8.80481 29.0701 8.53461L29.1602 7.58891ZM23.2127 7.84367C23.0494 7.83924 22.8859 7.84828 22.724 7.87069C22.1988 7.93245 21.6947 8.32424 21.6047 8.86464C21.5472 9.38767 21.5682 10.0265 21.9957 10.4009C22.2774 10.6325 22.6473 10.7097 23.0019 10.7406C23.4964 10.756 24.0752 10.6769 24.3819 10.2311C24.7173 9.72157 24.7192 9.02869 24.4854 8.47864C24.2324 8.01544 23.7168 7.85911 23.2127 7.84367ZM16.882 8.48057C17.0085 8.80867 17.1005 9.14835 17.1887 9.48803C16.9587 9.44364 16.6098 9.46873 16.4795 9.22169C16.4162 8.91096 16.7037 8.69287 16.882 8.4825V8.48057ZM29.0509 8.77007C29.2177 8.91868 29.4419 9.1194 29.3767 9.36837C29.2483 9.59418 28.9589 9.59611 28.7347 9.61927C28.8421 9.33696 28.9475 9.05389 29.0509 8.77007ZM16.2284 9.3896C16.4067 9.53821 16.6022 9.69261 16.8398 9.72928C16.9932 9.77561 17.1714 9.76402 17.3094 9.85087C17.6084 10.2195 17.8729 10.6209 18.2447 10.922C18.8178 11.4566 19.5059 11.8272 20.1518 12.2576C20.0407 12.7208 19.7436 13.101 19.5021 13.5005C17.7388 12.8192 16.2073 11.4354 15.5058 9.65015C15.7473 9.56909 15.9888 9.48224 16.2265 9.3896H16.2284ZM29.6317 9.51119C29.8099 9.5826 29.9882 9.65594 30.1683 9.72349C29.8137 10.7078 29.1487 11.557 28.3667 12.2344C27.7985 12.7403 27.1404 13.1332 26.427 13.3924C26.2737 13.1222 26.1088 12.8559 25.9747 12.5741C25.9363 12.4776 25.875 12.3464 25.9555 12.2557C26.1433 12.0665 26.3906 11.9546 26.6187 11.8233C27.094 11.5377 27.531 11.1922 27.9335 10.8082C28.2018 10.5495 28.3705 10.206 28.6177 9.92807C28.8286 9.84508 29.0739 9.88176 29.2828 9.78526C29.417 9.71578 29.5205 9.60769 29.6317 9.51119ZM14.9308 9.64629L15.3218 9.65208C15.6553 10.482 16.1307 11.2675 16.7785 11.8851C17.1752 12.246 17.5605 12.6262 18.0224 12.9022C18.4632 13.1956 18.9463 13.4079 19.4216 13.6356C19.3747 13.7685 19.3177 13.8976 19.251 14.0216C18.7857 13.8347 18.3374 13.6074 17.9113 13.3423C17.3363 13.0006 16.8571 12.5297 16.3779 12.0685C15.8796 11.5802 15.5538 10.949 15.2203 10.343C15.0957 10.123 15.0152 9.88175 14.9308 9.64629ZM30.3159 9.75823L30.7376 9.79683C30.4195 10.7764 29.8611 11.6592 29.1142 12.3637C28.4012 13.0199 27.6096 13.6472 26.6762 13.9463C26.611 13.8112 26.5458 13.6761 26.4845 13.5372C27.0691 13.2728 27.6537 12.9794 28.152 12.5645C29.072 11.8156 29.8962 10.8892 30.3159 9.75823ZM27.7322 10.5939C27.3681 11.1073 26.8027 11.4045 26.3024 11.7616C26.0724 11.9411 25.7466 12.0511 25.6527 12.3599C25.6737 12.5413 25.8194 12.6764 25.9018 12.8327C26.1088 13.1917 26.3139 13.5546 26.4807 13.9328C26.5727 14.1722 26.4787 14.4192 26.3887 14.6411C26.0858 14.5582 25.7485 14.4192 25.6162 14.1104C25.3613 13.6453 25.3671 13.0605 25.0125 12.6436C24.9799 13.2651 25.4265 13.7669 25.5012 14.3671C25.4706 14.5775 25.3402 14.7569 25.2406 14.9403C24.9742 14.7898 24.6464 14.6392 24.5832 14.3053C24.4011 13.8112 24.5122 13.2187 24.2152 12.7671C24.0944 13.1975 24.3033 13.6163 24.3838 14.0332C24.4279 14.2918 24.541 14.618 24.3398 14.838C24.2747 14.9257 24.2069 15.0113 24.1366 15.0947C23.9353 14.9499 23.6766 14.8148 23.6095 14.5543C23.4964 14.0525 23.5788 13.5314 23.4868 13.0296C23.46 12.9659 23.4159 12.9157 23.3757 12.8636C23.2415 13.4619 23.5386 14.0525 23.4657 14.6547C23.3853 14.8708 23.207 15.0966 22.9674 15.1372C22.747 14.9828 22.5419 14.7512 22.5438 14.4617C22.5151 13.9386 22.7106 13.4291 22.6838 12.9041L22.5438 12.9003C22.4729 13.3442 22.5093 13.7977 22.4806 14.2455C22.4777 14.4515 22.4077 14.6509 22.2812 14.8129C22.1663 14.9171 22.0378 15.0059 21.9037 15.087C21.7829 14.9596 21.6449 14.8361 21.5721 14.6701C21.5069 14.4192 21.597 14.1683 21.6488 13.9213C21.7388 13.5507 21.8692 13.1801 21.8519 12.7941H21.7254C21.5663 13.294 21.5702 13.8228 21.4302 14.3266C21.3905 14.4546 21.3229 14.5722 21.2324 14.6707C21.1419 14.7692 21.0307 14.8461 20.907 14.8959C20.8035 14.9422 20.6789 14.8689 20.6387 14.7685C20.4527 14.5311 20.5467 14.2108 20.6291 13.9521C20.7939 13.5237 20.9971 13.1049 21.0891 12.6513L20.9626 12.5992C20.6943 13.101 20.6291 13.6877 20.3492 14.1837C20.2881 14.2991 20.2034 14.4 20.1006 14.4798C19.9979 14.5597 19.8794 14.6167 19.7532 14.6469C19.6669 14.6759 19.5998 14.6045 19.5615 14.5369C19.5121 14.4371 19.4855 14.3273 19.4839 14.2157C19.4822 14.1041 19.5055 13.9936 19.5519 13.8923C19.7666 13.4272 20.0694 13.0045 20.2803 12.5374C20.3186 12.4101 20.3876 12.2383 20.2822 12.1264C19.8605 11.6902 19.2357 11.5473 18.8063 11.1189C19.2529 11.3852 19.6861 11.6902 20.1787 11.8639C21.9478 12.5818 23.9928 12.6031 25.7657 11.8851C26.5132 11.6226 27.163 11.1382 27.7322 10.5939Z" fill="current"/>
</svg>
