<svg width="24" height="24" viewBox="0 0 24 24" fill="current" xmlns="http://www.w3.org/2000/svg">
<path fill-rule="evenodd" clip-rule="evenodd" d="M24 12C24 13.5759 23.6896 15.1363 23.0866 16.5922C22.4835 18.0481 21.5996 19.371 20.4853 20.4853C19.371 21.5996 18.0481 22.4835 16.5922 23.0866C15.1363 23.6896 13.5759 24 12 24C10.4241 24 8.86371 23.6896 7.4078 23.0866C5.95189 22.4835 4.62902 21.5996 3.51472 20.4853C2.40042 19.371 1.5165 18.0481 0.913445 16.5922C0.310389 15.1363 -2.34822e-08 13.5759 0 12C4.74244e-08 8.8174 1.26428 5.76516 3.51472 3.51472C5.76515 1.26428 8.8174 0 12 0C15.1826 0 18.2348 1.26428 20.4853 3.51472C22.7357 5.76516 24 8.8174 24 12ZM2.66667 12C2.66667 14.4754 3.65 16.8493 5.40034 18.5997C7.15068 20.35 9.52465 21.3333 12 21.3333V12H21.3333C21.3333 9.52465 20.35 7.15068 18.5997 5.40034C16.8493 3.65 14.4754 2.66667 12 2.66667V12H2.66667Z" fill="current"/>
</svg>
